<?xml version="1.0" standalone="no"?>
<!DOCTYPE svg PUBLIC "-//W3C//DTD SVG 20010904//EN"
 "http://www.w3.org/TR/2001/REC-SVG-20010904/DTD/svg10.dtd">
<svg version="1.0" xmlns="http://www.w3.org/2000/svg"
 width="460.000000pt" height="460.000000pt" viewBox="0 0 460.000000 460.000000"
 preserveAspectRatio="xMidYMid meet">
<metadata>
Created by potrace 1.11, written by Peter Selinger 2001-2013
</metadata>
<g transform="translate(0.000000,460.000000) scale(0.100000,-0.100000)"
fill="#000000" stroke="none">
<path d="M2362 4099 c-3 -34 -3 -44 0 -63 2 -10 -6 -23 -17 -30 -11 -6 -22
-12 -24 -14 -3 -1 5 -9 17 -18 21 -14 21 -17 7 -44 -8 -16 -15 -39 -15 -52 0
-19 -2 -20 -10 -8 -8 11 -10 -2 -9 -45 0 -33 -2 -98 -5 -143 -6 -78 -5 -84 14
-89 11 -3 20 -8 21 -12 0 -3 2 -16 5 -28 3 -16 -1 -23 -11 -23 -18 0 -20 -17
-2 -23 9 -3 9 -7 -2 -20 -9 -11 -11 -28 -7 -51 4 -22 2 -36 -5 -38 -20 -7 13
-50 35 -44 15 4 17 0 13 -19 -2 -14 0 -26 4 -27 5 -2 10 -14 11 -28 3 -21 -1
-25 -19 -23 -13 2 -23 -1 -23 -6 0 -4 -28 -11 -61 -15 -34 -3 -67 -10 -73 -15
-6 -5 -49 -12 -95 -16 -99 -8 -118 -15 -151 -60 -14 -19 -30 -35 -36 -35 -7 0
-23 -24 -37 -52 -21 -44 -27 -73 -32 -173 -4 -66 -7 -131 -6 -145 2 -45 25
-122 39 -128 11 -4 11 -6 0 -13 -10 -7 -10 -9 0 -9 16 0 16 -40 -1 -76 -23
-53 -50 -85 -88 -104 -21 -11 -40 -24 -43 -28 -6 -10 93 -87 134 -105 28 -13
40 -26 40 -44 0 -7 -7 -10 -17 -6 -10 4 -14 2 -10 -4 5 -7 -10 -13 -41 -16
-26 -3 -65 -9 -87 -14 -22 -5 -55 -6 -72 -2 -41 8 -43 1 -3 -12 27 -10 30 -15
30 -55 0 -38 -3 -44 -25 -50 -13 -3 -39 -1 -56 5 -43 15 -59 14 -53 -3 3 -9
12 -12 21 -9 9 4 14 2 11 -3 -4 -5 31 -10 80 -10 48 -1 117 -4 155 -7 37 -3
67 -1 67 4 0 5 9 9 20 9 11 0 20 -4 20 -10 0 -5 5 -10 11 -10 8 0 7 5 -2 16
-10 13 -10 17 1 24 17 11 33 3 24 -12 -4 -7 -2 -8 4 -4 7 4 12 14 12 21 0 9 6
12 15 9 8 -4 15 -2 15 4 0 5 16 17 36 27 35 17 119 129 109 145 -3 5 1 11 7
13 9 4 8 6 -3 6 -12 1 -15 13 -15 57 1 40 -3 59 -15 68 -10 6 -24 27 -32 46
-8 19 -25 46 -39 60 -56 57 -110 151 -98 169 4 7 6 40 3 73 -2 37 1 66 8 74 9
11 7 20 -6 40 -14 22 -15 28 -4 35 8 5 17 9 21 9 4 0 23 14 43 31 32 28 35 29
35 11 0 -21 13 -34 40 -39 8 -1 29 -5 47 -9 23 -4 36 -1 51 14 17 17 21 18 26
6 7 -17 -31 -34 -81 -36 -33 -1 -60 -18 -29 -18 9 0 16 -5 16 -11 0 -6 7 -8
17 -5 9 4 20 1 25 -6 14 -22 9 -30 -19 -28 -16 1 -37 2 -48 1 -48 -4 18 -22
98 -28 71 -5 89 -3 129 16 26 11 51 21 55 21 13 0 89 40 78 40 -6 0 -2 5 7 10
10 6 15 19 13 31 -3 17 0 20 15 16 12 -3 17 0 14 8 -3 7 -2 15 3 18 9 6 12 -8
17 -78 2 -22 7 -48 11 -58 4 -10 4 -51 0 -90 -4 -40 -8 -88 -9 -109 0 -20 -5
-34 -9 -31 -4 3 -7 -27 -5 -65 l2 -71 28 20 c40 29 51 55 44 101 -4 26 -3 37
4 33 6 -3 7 -11 4 -17 -4 -6 -1 -9 7 -6 15 5 77 167 79 208 1 23 2 23 9 5 12
-29 33 105 29 180 -3 53 -5 60 -25 63 -20 3 -21 6 -12 23 18 35 4 51 -43 47
-29 -2 -43 1 -44 10 -1 6 -2 19 -3 27 -2 24 -21 18 -31 -10 -10 -26 -24 -32
-35 -15 -3 6 -1 10 5 10 6 0 8 5 5 10 -5 8 -11 7 -21 -1 -11 -9 -13 -3 -10 35
2 31 -1 49 -10 54 -9 5 -10 12 -4 22 8 12 10 11 11 -5 0 -14 3 -12 9 9 6 17 5
36 0 47 -13 23 -13 59 -1 59 5 0 12 -12 14 -27 3 -20 4 -16 6 14 0 25 7 45 16
50 8 5 17 24 19 43 3 19 12 49 21 67 19 39 44 133 39 147 -2 6 -5 27 -8 46 -7
57 -18 100 -27 106 -5 3 -7 9 -4 14 5 8 -32 83 -62 125 -14 19 -15 19 -8 -5 6
-17 -8 -6 -45 38 -29 34 -56 62 -59 62 -3 0 -18 10 -32 23 -14 12 -34 27 -45
33 -16 10 -20 8 -22 -7z m223 -189 c3 -5 1 -10 -4 -10 -6 0 -11 5 -11 10 0 6
2 10 4 10 3 0 8 -4 11 -10z m5 -810 c0 -5 -7 -10 -16 -10 -8 0 -12 5 -9 10 3
6 10 10 16 10 5 0 9 -4 9 -10z m-25 -40 c3 -5 1 -10 -4 -10 -6 0 -11 5 -11 10
0 6 2 10 4 10 3 0 8 -4 11 -10z m-360 -30 c14 -6 4 -9 -37 -9 -31 -1 -59 -5
-62 -10 -3 -5 -16 -11 -28 -14 -22 -6 -22 -6 2 13 36 28 88 36 125 20z m415
-75 c0 -8 -4 -15 -10 -15 -5 0 -10 7 -10 15 0 8 5 15 10 15 6 0 10 -7 10 -15z
m50 -325 c0 -5 -5 -10 -11 -10 -5 0 -7 5 -4 10 3 6 8 10 11 10 2 0 4 -4 4 -10z
m-43 -82 c-3 -8 -6 -5 -6 6 -1 11 2 17 5 13 3 -3 4 -12 1 -19z m-50 -20 c-3
-7 -5 -2 -5 12 0 14 2 19 5 13 2 -7 2 -19 0 -25z m-739 -370 c9 -9 15 -9 24 0
19 19 45 14 53 -10 6 -20 8 -20 12 -5 4 16 33 24 45 11 5 -4 -9 -69 -17 -82
-1 -1 -10 1 -19 4 -11 4 -16 14 -13 25 7 26 -10 24 -18 -1 -7 -22 -35 -26 -53
-8 -8 8 -12 8 -12 1 0 -14 -46 -26 -70 -18 -24 7 -31 28 -23 65 5 27 9 30 42
30 20 0 42 -5 49 -12z"/>
<path d="M2315 4040 c-3 -5 -1 -10 4 -10 6 0 11 5 11 10 0 6 -2 10 -4 10 -3 0
-8 -4 -11 -10z"/>
<path d="M1094 3267 c-5 -8 -16 -17 -24 -20 -10 -3 -7 -6 8 -6 13 -1 21 -4 19
-8 -3 -5 29 -7 71 -6 71 2 181 -16 221 -37 9 -5 30 -14 48 -20 22 -8 30 -17
26 -27 -5 -12 -1 -14 18 -8 16 4 20 3 11 -3 -10 -7 -4 -11 22 -16 44 -8 56 -2
56 30 0 26 18 32 38 12 7 -7 12 -9 12 -5 0 18 -97 97 -125 103 -56 10 -140 11
-158 2 -17 -9 -86 -2 -203 18 -22 4 -35 1 -40 -9z m46 -17 c0 -13 -11 -13 -30
0 -12 8 -11 10 8 10 12 0 22 -4 22 -10z m410 -120 c0 -5 -7 -7 -15 -4 -8 4
-15 8 -15 10 0 2 7 4 15 4 8 0 15 -4 15 -10z"/>
<path d="M1045 3220 c-3 -5 -2 -10 4 -10 5 0 13 5 16 10 3 6 2 10 -4 10 -5 0
-13 -4 -16 -10z"/>
<path d="M2560 3180 c0 -5 5 -10 11 -10 5 0 7 5 4 10 -3 6 -8 10 -11 10 -2 0
-4 -4 -4 -10z"/>
<path d="M650 3105 c-23 -27 -5 -33 30 -9 34 24 34 24 8 24 -14 0 -31 -7 -38
-15z"/>
<path d="M1224 3109 c-17 -5 -37 -16 -44 -24 -15 -18 1 -20 18 -3 6 6 38 17
69 24 46 10 51 12 23 12 -19 0 -49 -4 -66 -9z"/>
<path d="M1423 3102 c46 -15 69 -40 25 -26 -21 6 -21 5 4 -15 14 -11 33 -18
41 -15 8 3 17 1 20 -3 10 -16 -38 -8 -67 12 -20 13 -45 19 -85 19 -68 0 -101
-6 -101 -16 0 -4 -7 -8 -15 -8 -24 0 -65 -22 -65 -36 0 -20 57 -11 83 14 18
17 26 19 35 10 7 -7 12 -20 12 -29 0 -21 26 -43 40 -34 5 3 10 1 10 -4 0 -6
15 -11 33 -11 26 0 36 6 51 30 l18 31 20 -27 c16 -20 18 -28 8 -34 -9 -6 -9
-9 0 -15 7 -4 16 -2 20 5 4 7 15 10 24 7 9 -4 16 -2 16 4 0 5 -7 12 -15 15 -8
4 -15 15 -15 26 0 10 5 16 10 13 16 -10 11 18 -10 52 -19 33 -69 54 -120 52
-18 -1 -12 -5 23 -17z m-53 -62 c0 -5 -4 -10 -10 -10 -5 0 -10 5 -10 10 0 6 5
10 10 10 6 0 10 -4 10 -10z"/>
<path d="M2549 2912 c12 -9 12 -13 2 -26 -11 -14 -11 -16 3 -16 22 0 18 42 -4
47 -13 4 -13 3 -1 -5z"/>
<path d="M2510 2816 c0 -18 -4 -25 -12 -20 -12 7 -7 -30 8 -70 6 -16 4 -18 -9
-13 -14 5 -16 2 -11 -20 5 -17 3 -24 -4 -19 -10 6 -34 -48 -37 -84 -1 -8 -5
-26 -9 -39 -6 -16 -4 -27 5 -33 11 -8 10 -9 -2 -5 -12 4 -18 -2 -23 -24 -3
-16 -12 -29 -19 -29 -23 0 -40 -92 -32 -181 6 -70 4 -86 -16 -137 -13 -31 -41
-82 -62 -114 -41 -59 -128 -148 -146 -148 -6 0 -11 -6 -11 -13 0 -7 -10 -23
-23 -37 -12 -14 -28 -38 -35 -53 -7 -16 -21 -31 -32 -34 -11 -3 -20 -11 -20
-18 0 -21 -123 -138 -176 -167 -53 -28 -151 -51 -160 -37 -3 5 -15 9 -27 9
-18 0 -19 -2 -7 -11 11 -7 6 -8 -20 -5 -101 14 -120 16 -120 11 0 -4 20 -15
45 -26 24 -11 57 -30 72 -43 15 -12 42 -30 58 -38 78 -40 160 -92 171 -109 13
-22 5 -71 -15 -93 -11 -12 -22 -33 -23 -46 -3 -24 -1 -25 52 -23 30 1 73 4 95
7 54 5 72 -10 89 -77 27 -104 32 -107 126 -82 30 8 57 11 60 6 10 -15 154 -37
190 -29 50 11 100 1 100 -20 0 -64 -90 -286 -145 -358 -14 -18 -25 -35 -25
-38 0 -17 -106 -152 -165 -209 -97 -94 -115 -98 -252 -58 -59 17 -114 31 -121
31 -26 0 -237 109 -313 162 -118 82 -355 286 -447 386 -108 116 -238 280 -288
361 -33 55 -39 72 -39 122 0 72 17 97 109 160 75 51 117 89 98 89 -15 0 -107
-45 -142 -70 -14 -10 -56 -35 -95 -55 -38 -21 -93 -59 -121 -84 -28 -25 -91
-66 -140 -91 -49 -25 -91 -47 -94 -50 -3 -3 -16 -11 -29 -18 -13 -8 -38 -22
-55 -31 -55 -32 -120 -75 -194 -130 l-72 -55 0 -508 0 -508 2160 0 2160 0 -20
38 c-12 23 -23 75 -30 137 -19 192 -31 270 -49 320 -10 28 -24 77 -31 110 -7
33 -22 73 -35 90 -12 16 -37 57 -55 89 -18 33 -52 82 -74 110 -23 28 -57 77
-76 108 -29 49 -103 125 -147 151 -7 4 -70 23 -140 43 -136 36 -212 65 -254
95 -40 28 -252 135 -358 180 -52 22 -144 52 -205 65 -120 27 -178 47 -298 100
-43 19 -85 34 -93 34 -16 0 -166 49 -175 57 -2 2 -3 20 -2 41 3 30 12 45 52
80 27 23 63 60 80 82 32 41 108 206 89 195 -11 -7 -3 37 12 67 11 21 11 31 0
24 -14 -9 -20 57 -7 73 8 11 8 13 -1 8 -13 -8 -12 18 2 30 4 4 5 2 0 -6 -6
-10 -4 -12 4 -7 8 6 9 12 2 20 -6 7 -8 16 -4 19 3 4 1 7 -6 7 -8 0 -11 -6 -7
-16 3 -8 2 -12 -3 -9 -6 3 -7 22 -4 42 5 32 4 36 -12 29 -15 -5 -17 -2 -11 25
3 17 6 38 6 46 0 8 5 11 12 7 8 -5 9 -2 5 10 -7 19 16 72 34 78 15 5 25 98 11
98 -6 0 -10 31 -10 81 0 44 -3 83 -6 87 -3 3 -6 -7 -6 -22z"/>
<path d="M1310 2472 c-44 -30 -110 -105 -110 -125 0 -14 13 -6 56 35 88 83
118 133 54 90z"/>
<path d="M1550 2477 c0 -10 57 -37 63 -31 3 3 22 -2 42 -11 47 -23 53 -16 10
14 -31 21 -115 41 -115 28z"/>
<path d="M1349 2228 c-23 -9 -23 -10 -4 -20 11 -7 29 -20 39 -30 26 -24 33
-23 32 5 -1 20 3 22 54 21 30 -1 83 -5 118 -9 34 -4 62 -5 62 -2 0 4 -70 15
-256 41 -11 1 -32 -1 -45 -6z"/>
<path d="M1430 2150 c0 -5 5 -10 11 -10 5 0 7 5 4 10 -3 6 -8 10 -11 10 -2 0
-4 -4 -4 -10z"/>
<path d="M1546 2108 c-14 -16 -15 -22 -5 -28 13 -9 39 11 39 29 0 20 -17 20
-34 -1z"/>
<path d="M2081 2062 c-1 -7 -6 -10 -11 -7 -15 10 -51 -5 -44 -17 5 -7 1 -9 -9
-5 -20 8 -85 -53 -79 -73 3 -7 0 -10 -5 -7 -6 4 -16 -5 -23 -18 -11 -20 -11
-27 0 -40 9 -10 16 -12 25 -5 6 5 15 7 18 4 3 -4 -4 -15 -16 -25 -19 -16 -20
-18 -4 -19 10 0 24 14 34 35 9 19 21 35 27 36 12 0 76 92 76 108 0 5 5 11 12
13 6 2 8 11 5 19 -4 10 -6 10 -6 1z"/>
<path d="M1997 1896 c-4 -10 -1 -13 8 -9 8 3 12 9 9 14 -7 12 -11 11 -17 -5z"/>
</g>
</svg>
